<?xml version="1.0" standalone="no"?>
<!DOCTYPE svg PUBLIC "-//W3C//DTD SVG 20010904//EN"
 "http://www.w3.org/TR/2001/REC-SVG-20010904/DTD/svg10.dtd">
<svg version="1.0" xmlns="http://www.w3.org/2000/svg"
 width="563.000000pt" height="563.000000pt" viewBox="0 0 563.000000 563.000000"
 preserveAspectRatio="xMidYMid meet">
<metadata>
Created by potrace 1.14, written by Peter Selinger 2001-2017
</metadata>
<g transform="translate(0.000000,563.000000) scale(0.100000,-0.100000)"
fill="#000000" stroke="none">
<path d="M2697 5594 c-1 -1 -45 -4 -98 -8 -53 -4 -107 -9 -120 -11 -13 -2 -55
-8 -94 -14 -110 -17 -122 -20 -265 -56 -240 -61 -464 -150 -665 -265 -22 -13
-49 -28 -60 -34 -56 -30 -232 -154 -325 -229 -426 -343 -733 -792 -904 -1320
-32 -98 -77 -282 -90 -362 -2 -16 -7 -48 -11 -70 -18 -121 -28 -258 -28 -405
-1 -119 10 -308 18 -340 2 -8 7 -40 10 -70 16 -153 111 -501 176 -648 133
-300 249 -493 426 -709 275 -336 615 -596 1013 -775 231 -104 506 -184 735
-214 22 -3 51 -7 65 -10 135 -22 524 -21 680 2 233 34 494 98 615 149 17 7 62
25 100 40 200 80 488 249 666 391 465 371 803 884 954 1443 37 138 61 249 70
326 3 28 8 59 10 70 18 89 24 410 10 568 -40 483 -202 939 -473 1337 -149 219
-360 446 -555 600 -56 44 -106 84 -112 88 -69 55 -254 166 -390 234 -218 110
-510 209 -715 243 -19 3 -42 8 -50 10 -8 2 -42 7 -75 11 -33 3 -63 8 -66 10
-15 8 -442 26 -452 18z"/>
</g>
</svg>
